<svg xmlns="http://www.w3.org/2000/svg" width="24" height="24"  viewBox="0 0 24 24"><g transform="matrix(1 0 0 1 0 0)"  ><g style=""   ><g transform="matrix(1 0 0 1 12 21)"  ><path style="stroke: none; stroke-width: 1; stroke-dasharray: none; stroke-linecap: butt; stroke-dashoffset: 0; stroke-linejoin: miter; stroke-miterlimit: 4; fill: rgb(224,224,224); fill-rule: nonzero; opacity: 1;"  transform=" translate(-12, -21)" d="M 11 22 L 11 20 C 11 19.4477 11.4477 19 12 19 C 12.5523 19 13 19.4477 13 20 L 13 22 C 13 22.5523 12.5523 23 12 23 C 11.4477 23 11 22.5523 11 22 Z" stroke-linecap="round" /></g><g transform="matrix(1 0 0 1 12 3)"  ><path style="stroke: none; stroke-width: 1; stroke-dasharray: none; stroke-linecap: butt; stroke-dashoffset: 0; stroke-linejoin: miter; stroke-miterlimit: 4; fill: rgb(224,224,224); fill-rule: nonzero; opacity: 1;"  transform=" translate(-12, -3)" d="M 11 4 L 11 2 C 11 1.44772 11.4477 1 12 1 C 12.5523 1 13 1.44772 13 2 L 13 4 C 13 4.55228 12.5523 5 12 5 C 11.4477 5 11 4.55228 11 4 Z" stroke-linecap="round" /></g><g transform="matrix(1 0 0 1 17 21)"  ><path style="stroke: none; stroke-width: 1; stroke-dasharray: none; stroke-linecap: butt; stroke-dashoffset: 0; stroke-linejoin: miter; stroke-miterlimit: 4; fill: rgb(224,224,224); fill-rule: nonzero; opacity: 1;"  transform=" translate(-17, -21)" d="M 16 22 L 16 20 C 16 19.4477 16.4477 19 17 19 C 17.5523 19 18 19.4477 18 20 L 18 22 C 18 22.5523 17.5523 23 17 23 C 16.4477 23 16 22.5523 16 22 Z" stroke-linecap="round" /></g><g transform="matrix(1 0 0 1 17 3)"  ><path style="stroke: none; stroke-width: 1; stroke-dasharray: none; stroke-linecap: butt; stroke-dashoffset: 0; stroke-linejoin: miter; stroke-miterlimit: 4; fill: rgb(224,224,224); fill-rule: nonzero; opacity: 1;"  transform=" translate(-17, -3)" d="M 16 4 L 16 2 C 16 1.44772 16.4477 1 17 1 C 17.5523 1 18 1.44772 18 2 L 18 4 C 18 4.55228 17.5523 5 17 5 C 16.4477 5 16 4.55228 16 4 Z" stroke-linecap="round" /></g><g transform="matrix(1 0 0 1 3 12)"  ><path style="stroke: none; stroke-width: 1; stroke-dasharray: none; stroke-linecap: butt; stroke-dashoffset: 0; stroke-linejoin: miter; stroke-miterlimit: 4; fill: rgb(224,224,224); fill-rule: nonzero; opacity: 1;"  transform=" translate(-3, -12)" d="M 4 11 C 4.55228 11 5 11.4477 5 12 C 5 12.5523 4.55228 13 4 13 L 2 13 C 1.44772 13 1 12.5523 1 12 C 1 11.4477 1.44772 11 2 11 L 4 11 Z" stroke-linecap="round" /></g><g transform="matrix(1 0 0 1 3 17)"  ><path style="stroke: none; stroke-width: 1; stroke-dasharray: none; stroke-linecap: butt; stroke-dashoffset: 0; stroke-linejoin: miter; stroke-miterlimit: 4; fill: rgb(224,224,224); fill-rule: nonzero; opacity: 1;"  transform=" translate(-3, -17)" d="M 4 16 C 4.55228 16 5 16.4477 5 17 C 5 17.5523 4.55228 18 4 18 L 2 18 C 1.44772 18 1 17.5523 1 17 C 1 16.4477 1.44772 16 2 16 L 4 16 Z" stroke-linecap="round" /></g><g transform="matrix(1 0 0 1 3 7)"  ><path style="stroke: none; stroke-width: 1; stroke-dasharray: none; stroke-linecap: butt; stroke-dashoffset: 0; stroke-linejoin: miter; stroke-miterlimit: 4; fill: rgb(224,224,224); fill-rule: nonzero; opacity: 1;"  transform=" translate(-3, -7)" d="M 4 6 C 4.55228 6 5 6.44772 5 7 C 5 7.55228 4.55228 8 4 8 L 2 8 C 1.44772 8 1 7.55228 1 7 C 1 6.44772 1.44772 6 2 6 L 4 6 Z" stroke-linecap="round" /></g><g transform="matrix(1 0 0 1 21 12)"  ><path style="stroke: none; stroke-width: 1; stroke-dasharray: none; stroke-linecap: butt; stroke-dashoffset: 0; stroke-linejoin: miter; stroke-miterlimit: 4; fill: rgb(224,224,224); fill-rule: nonzero; opacity: 1;"  transform=" translate(-21, -12)" d="M 22 11 C 22.5523 11 23 11.4477 23 12 C 23 12.5523 22.5523 13 22 13 L 20 13 C 19.4477 13 19 12.5523 19 12 C 19 11.4477 19.4477 11 20 11 L 22 11 Z" stroke-linecap="round" /></g><g transform="matrix(1 0 0 1 21 17)"  ><path style="stroke: none; stroke-width: 1; stroke-dasharray: none; stroke-linecap: butt; stroke-dashoffset: 0; stroke-linejoin: miter; stroke-miterlimit: 4; fill: rgb(224,224,224); fill-rule: nonzero; opacity: 1;"  transform=" translate(-21, -17)" d="M 22 16 C 22.5523 16 23 16.4477 23 17 C 23 17.5523 22.5523 18 22 18 L 20 18 C 19.4477 18 19 17.5523 19 17 C 19 16.4477 19.4477 16 20 16 L 22 16 Z" stroke-linecap="round" /></g><g transform="matrix(1 0 0 1 21 7)"  ><path style="stroke: none; stroke-width: 1; stroke-dasharray: none; stroke-linecap: butt; stroke-dashoffset: 0; stroke-linejoin: miter; stroke-miterlimit: 4; fill: rgb(224,224,224); fill-rule: nonzero; opacity: 1;"  transform=" translate(-21, -7)" d="M 22 6 C 22.5523 6 23 6.44772 23 7 C 23 7.55228 22.5523 8 22 8 L 20 8 C 19.4477 8 19 7.55228 19 7 C 19 6.44772 19.4477 6 20 6 L 22 6 Z" stroke-linecap="round" /></g><g transform="matrix(1 0 0 1 7 21)"  ><path style="stroke: none; stroke-width: 1; stroke-dasharray: none; stroke-linecap: butt; stroke-dashoffset: 0; stroke-linejoin: miter; stroke-miterlimit: 4; fill: rgb(224,224,224); fill-rule: nonzero; opacity: 1;"  transform=" translate(-7, -21)" d="M 6 22 L 6 20 C 6 19.4477 6.44772 19 7 19 C 7.55228 19 8 19.4477 8 20 L 8 22 C 8 22.5523 7.55228 23 7 23 C 6.44772 23 6 22.5523 6 22 Z" stroke-linecap="round" /></g><g transform="matrix(1 0 0 1 7 3)"  ><path style="stroke: none; stroke-width: 1; stroke-dasharray: none; stroke-linecap: butt; stroke-dashoffset: 0; stroke-linejoin: miter; stroke-miterlimit: 4; fill: rgb(224,224,224); fill-rule: nonzero; opacity: 1;"  transform=" translate(-7, -3)" d="M 6 4 L 6 2 C 6 1.44772 6.44772 1 7 1 C 7.55228 1 8 1.44772 8 2 L 8 4 C 8 4.55228 7.55228 5 7 5 C 6.44772 5 6 4.55228 6 4 Z" stroke-linecap="round" /></g><g transform="matrix(1 0 0 1 12 12)"  ><path style="stroke: none; stroke-width: 1; stroke-dasharray: none; stroke-linecap: butt; stroke-dashoffset: 0; stroke-linejoin: miter; stroke-miterlimit: 4; fill: rgb(224,224,224); fill-rule: nonzero; opacity: 1;"  transform=" translate(-12, -12)" d="M 19 6 C 19 5.44772 18.5523 5 18 5 L 6 5 C 5.44772 5 5 5.44772 5 6 L 5 18 C 5 18.5523 5.44772 19 6 19 L 18 19 C 18.5523 19 19 18.5523 19 18 L 19 6 Z M 21 18 C 21 19.6569 19.6569 21 18 21 L 6 21 C 4.34315 21 3 19.6569 3 18 L 3 6 C 3 4.34315 4.34315 3 6 3 L 18 3 C 19.6569 3 21 4.34315 21 6 L 21 18 Z" stroke-linecap="round" /></g><g transform="matrix(1 0 0 1 12 12)"  ><path style="stroke: none; stroke-width: 1; stroke-dasharray: none; stroke-linecap: butt; stroke-dashoffset: 0; stroke-linejoin: miter; stroke-miterlimit: 4; fill: rgb(224,224,224); fill-rule: nonzero; opacity: 1;"  transform=" translate(-12, -12)" d="M 9 9 L 9 15 L 15 15 L 15 9 L 9 9 Z M 17 15 C 17 16.1046 16.1046 17 15 17 L 9 17 C 7.89543 17 7 16.1046 7 15 L 7 9 C 7 7.89543 7.89543 7 9 7 L 15 7 C 16.1046 7 17 7.89543 17 9 L 17 15 Z" stroke-linecap="round" /></g></g></g></svg>