<svg xmlns="http://www.w3.org/2000/svg" width="24" height="24"  viewBox="0 0 24 24"><g transform="matrix(1 0 0 1 0 0)"  ><g style=""   ><g transform="matrix(1 0 0 1 12 6)"  ><path style="stroke: none; stroke-width: 1; stroke-dasharray: none; stroke-linecap: butt; stroke-dashoffset: 0; stroke-linejoin: miter; stroke-miterlimit: 4; fill: rgb(224,224,224); fill-rule: nonzero; opacity: 1;"  transform=" translate(-12, -6)" d="M 21 4 C 21 3.44772 20.5523 3 20 3 L 4 3 C 3.44772 3 3 3.44772 3 4 L 3 8 C 3 8.55228 3.44772 9 4 9 L 20 9 C 20.5523 9 21 8.55228 21 8 L 21 4 Z M 23 8 C 23 9.65685 21.6569 11 20 11 L 4 11 C 2.34315 11 1 9.65685 1 8 L 1 4 C 1 2.34315 2.34315 1 4 1 L 20 1 C 21.6569 1 23 2.34315 23 4 L 23 8 Z" stroke-linecap="round" /></g><g transform="matrix(1 0 0 1 12 18)"  ><path style="stroke: none; stroke-width: 1; stroke-dasharray: none; stroke-linecap: butt; stroke-dashoffset: 0; stroke-linejoin: miter; stroke-miterlimit: 4; fill: rgb(224,224,224); fill-rule: nonzero; opacity: 1;"  transform=" translate(-12, -18)" d="M 21 16 C 21 15.4477 20.5523 15 20 15 L 4 15 C 3.44772 15 3 15.4477 3 16 L 3 20 C 3 20.5523 3.44772 21 4 21 L 20 21 C 20.5523 21 21 20.5523 21 20 L 21 16 Z M 23 20 C 23 21.6569 21.6569 23 20 23 L 4 23 C 2.34315 23 1 21.6569 1 20 L 1 16 C 1 14.3431 2.34315 13 4 13 L 20 13 C 21.6569 13 23 14.3431 23 16 L 23 20 Z" stroke-linecap="round" /></g><g transform="matrix(1 0 0 1 6 6)"  ><path style="stroke: none; stroke-width: 1; stroke-dasharray: none; stroke-linecap: butt; stroke-dashoffset: 0; stroke-linejoin: miter; stroke-miterlimit: 4; fill: rgb(224,224,224); fill-rule: nonzero; opacity: 1;"  transform=" translate(-6, -6)" d="M 6.00977 5 L 6.1123 5.00488 C 6.61655 5.05611 7.00977 5.48224 7.00977 6 C 7.00977 6.51776 6.61655 6.94389 6.1123 6.99512 L 6.00977 7 L 6 7 C 5.44772 7 5 6.55228 5 6 C 5 5.44772 5.44772 5 6 5 L 6.00977 5 Z" stroke-linecap="round" /></g><g transform="matrix(1 0 0 1 6 18)"  ><path style="stroke: none; stroke-width: 1; stroke-dasharray: none; stroke-linecap: butt; stroke-dashoffset: 0; stroke-linejoin: miter; stroke-miterlimit: 4; fill: rgb(224,224,224); fill-rule: nonzero; opacity: 1;"  transform=" translate(-6, -18)" d="M 6.00977 17 L 6.1123 17.0049 C 6.61655 17.0561 7.00977 17.4822 7.00977 18 C 7.00977 18.5178 6.61655 18.9439 6.1123 18.9951 L 6.00977 19 L 6 19 C 5.44772 19 5 18.5523 5 18 C 5 17.4477 5.44772 17 6 17 L 6.00977 17 Z" stroke-linecap="round" /></g></g></g></svg>