<svg xmlns="http://www.w3.org/2000/svg" width="16" height="16"  viewBox="0 0 16 16"><g transform="matrix(1 0 0 1 0 0)"  ><g style=""   ><g transform="matrix(0.67 0 0 0.67 5.33 2.67)"  ><path style="stroke: none; stroke-width: 1; stroke-dasharray: none; stroke-linecap: butt; stroke-dashoffset: 0; stroke-linejoin: miter; stroke-miterlimit: 4; fill: rgb(224,224,224); fill-rule: nonzero; opacity: 1;"  transform=" translate(-8, -4)" d="M 7 6 L 7 2 C 7 1.44772 7.44772 1 8 1 C 8.55228 1 9 1.44772 9 2 L 9 6 C 9 6.55228 8.55228 7 8 7 C 7.44772 7 7 6.55228 7 6 Z" stroke-linecap="round" /></g><g transform="matrix(0.67 0 0 0.67 10.67 2.67)"  ><path style="stroke: none; stroke-width: 1; stroke-dasharray: none; stroke-linecap: butt; stroke-dashoffset: 0; stroke-linejoin: miter; stroke-miterlimit: 4; fill: rgb(224,224,224); fill-rule: nonzero; opacity: 1;"  transform=" translate(-16, -4)" d="M 15 6 L 15 2 C 15 1.44772 15.4477 1 16 1 C 16.5523 1 17 1.44772 17 2 L 17 6 C 17 6.55228 16.5523 7 16 7 C 15.4477 7 15 6.55228 15 6 Z" stroke-linecap="round" /></g><g transform="matrix(0.67 0 0 0.67 8 8.67)"  ><path style="stroke: none; stroke-width: 1; stroke-dasharray: none; stroke-linecap: butt; stroke-dashoffset: 0; stroke-linejoin: miter; stroke-miterlimit: 4; fill: rgb(224,224,224); fill-rule: nonzero; opacity: 1;"  transform=" translate(-12, -13)" d="M 20 6 C 20 5.44772 19.5523 5 19 5 L 5 5 C 4.44772 5 4 5.44772 4 6 L 4 20 C 4 20.5523 4.44772 21 5 21 L 19 21 C 19.5523 21 20 20.5523 20 20 L 20 6 Z M 22 20 C 22 21.6569 20.6569 23 19 23 L 5 23 C 3.34315 23 2 21.6569 2 20 L 2 6 C 2 4.34315 3.34315 3 5 3 L 19 3 C 20.6569 3 22 4.34315 22 6 L 22 20 Z" stroke-linecap="round" /></g><g transform="matrix(0.67 0 0 0.67 8 6.67)"  ><path style="stroke: none; stroke-width: 1; stroke-dasharray: none; stroke-linecap: butt; stroke-dashoffset: 0; stroke-linejoin: miter; stroke-miterlimit: 4; fill: rgb(224,224,224); fill-rule: nonzero; opacity: 1;"  transform=" translate(-12, -10)" d="M 21 9 C 21.5523 9 22 9.44772 22 10 C 22 10.5523 21.5523 11 21 11 L 3 11 C 2.44772 11 2 10.5523 2 10 C 2 9.44772 2.44772 9 3 9 L 21 9 Z" stroke-linecap="round" /></g></g></g></svg>