<svg xmlns="http://www.w3.org/2000/svg" width="24" height="24"  viewBox="0 0 24 24"><g transform="matrix(1 0 0 1 0 0)"  ><g style=""   ><g transform="matrix(1 0 0 1 6 9)"  ><path style="stroke: none; stroke-width: 1; stroke-dasharray: none; stroke-linecap: butt; stroke-dashoffset: 0; stroke-linejoin: miter; stroke-miterlimit: 4; fill: rgb(224,224,224); fill-rule: nonzero; opacity: 1;"  transform=" translate(-6, -9)" d="M 5 15 L 5 3 C 5 2.44772 5.44772 2 6 2 C 6.55228 2 7 2.44772 7 3 L 7 15 C 7 15.5523 6.55228 16 6 16 C 5.44772 16 5 15.5523 5 15 Z" stroke-linecap="round" /></g><g transform="matrix(1 0 0 1 18 6)"  ><path style="stroke: none; stroke-width: 1; stroke-dasharray: none; stroke-linecap: butt; stroke-dashoffset: 0; stroke-linejoin: miter; stroke-miterlimit: 4; fill: rgb(224,224,224); fill-rule: nonzero; opacity: 1;"  transform=" translate(-18, -6)" d="M 20 6 C 20 4.89543 19.1046 4 18 4 C 16.8954 4 16 4.89543 16 6 C 16 7.10457 16.8954 8 18 8 C 19.1046 8 20 7.10457 20 6 Z M 22 6 C 22 8.20914 20.2091 10 18 10 C 15.7909 10 14 8.20914 14 6 C 14 3.79086 15.7909 2 18 2 C 20.2091 2 22 3.79086 22 6 Z" stroke-linecap="round" /></g><g transform="matrix(1 0 0 1 6 18)"  ><path style="stroke: none; stroke-width: 1; stroke-dasharray: none; stroke-linecap: butt; stroke-dashoffset: 0; stroke-linejoin: miter; stroke-miterlimit: 4; fill: rgb(224,224,224); fill-rule: nonzero; opacity: 1;"  transform=" translate(-6, -18)" d="M 8 18 C 8 16.8954 7.10457 16 6 16 C 4.89543 16 4 16.8954 4 18 C 4 19.1046 4.89543 20 6 20 C 7.10457 20 8 19.1046 8 18 Z M 10 18 C 10 20.2091 8.20914 22 6 22 C 3.79086 22 2 20.2091 2 18 C 2 15.7909 3.79086 14 6 14 C 8.20914 14 10 15.7909 10 18 Z" stroke-linecap="round" /></g><g transform="matrix(1 0 0 1 13.5 13.5)"  ><path style="stroke: none; stroke-width: 1; stroke-dasharray: none; stroke-linecap: butt; stroke-dashoffset: 0; stroke-linejoin: miter; stroke-miterlimit: 4; fill: rgb(224,224,224); fill-rule: nonzero; opacity: 1;"  transform=" translate(-13.5, -13.5)" d="M 17 9 C 17 8.44772 17.4477 8 18 8 C 18.5523 8 19 8.44772 19 9 C 19 11.6522 17.9467 14.1959 16.0713 16.0713 C 14.1959 17.9467 11.6522 19 9 19 C 8.44772 19 8 18.5523 8 18 C 8 17.4477 8.44772 17 9 17 C 11.1217 17 13.1569 16.1575 14.6572 14.6572 C 16.1575 13.1569 17 11.1217 17 9 Z" stroke-linecap="round" /></g></g></g></svg>