<svg xmlns="http://www.w3.org/2000/svg" width="16" height="16"  viewBox="0 0 16 16"><g transform="matrix(1 0 0 1 0 0)"  ><g style=""   ><g transform="matrix(0.67 0 0 0.67 8 6.67)"  ><path style="stroke: none; stroke-width: 1; stroke-dasharray: none; stroke-linecap: butt; stroke-dashoffset: 0; stroke-linejoin: miter; stroke-miterlimit: 4; fill: rgb(189,193,202); fill-rule: nonzero; opacity: 1;"  transform=" translate(-12, -10)" d="M 21.4629 6.15624 C 21.9287 5.85973 22.5471 5.99715 22.8437 6.46288 C 23.1402 6.92867 23.0028 7.54708 22.5371 7.84374 L 13.5459 13.5703 C 13.5345 13.5775 13.5233 13.585 13.5117 13.5918 C 13.1112 13.8244 12.6626 13.9608 12.2021 13.9912 L 12.0049 13.9971 C 11.4757 13.9971 10.9556 13.8575 10.498 13.5918 C 10.4864 13.585 10.4743 13.5776 10.4629 13.5703 L 1.46288 7.84374 L 1.37987 7.78417 C 0.981919 7.47025 0.878267 6.89971 1.15624 6.46288 C 1.43428 6.0261 1.99533 5.87783 2.44823 6.10546 L 2.5371 6.15624 L 11.5078 11.8652 C 11.659 11.9518 11.8306 11.9971 12.0049 11.9971 L 12.1357 11.9892 C 12.2637 11.9723 12.3872 11.9296 12.5 11.8652 L 21.4629 6.15624 Z" stroke-linecap="round" /></g><g transform="matrix(0.67 0 0 0.67 8 8)"  ><path style="stroke: none; stroke-width: 1; stroke-dasharray: none; stroke-linecap: butt; stroke-dashoffset: 0; stroke-linejoin: miter; stroke-miterlimit: 4; fill: rgb(189,193,202); fill-rule: nonzero; opacity: 1;"  transform=" translate(-12, -12)" d="M 21 6 C 21 5.44772 20.5523 5 20 5 L 4 5 C 3.44772 5 3 5.44772 3 6 L 3 18 C 3 18.5523 3.44772 19 4 19 L 20 19 C 20.5523 19 21 18.5523 21 18 L 21 6 Z M 23 18 C 23 19.6569 21.6569 21 20 21 L 4 21 C 2.34315 21 1 19.6569 1 18 L 1 6 C 1 4.34315 2.34315 3 4 3 L 20 3 C 21.6569 3 23 4.34315 23 6 L 23 18 Z" stroke-linecap="round" /></g></g></g></svg>