<svg xmlns="http://www.w3.org/2000/svg" width="20" height="20"  viewBox="0 0 20 20"><g transform="matrix(1 0 0 1 0 0)"  ><g style=""   ><g transform="matrix(0.83 0 0 0.83 10 10)"  ><path style="stroke: none; stroke-width: 1; stroke-dasharray: none; stroke-linecap: butt; stroke-dashoffset: 0; stroke-linejoin: miter; stroke-miterlimit: 4; fill: rgb(224,224,224); fill-rule: nonzero; opacity: 1;"  transform=" translate(-12, -12)" d="M 19 5.99957 C 16.6805 5.99957 13.9706 4.66298 12.1104 3.03961 L 12.1104 3.04059 C 12.0796 3.01429 12.0405 2.99957 12 2.99957 C 11.9595 2.99957 11.9204 3.01429 11.8896 3.04059 L 11.8887 3.03961 C 10.0971 4.60159 7.48931 5.91508 5.21875 5.99567 L 5 5.99957 L 5 12.9996 L 5.00879 13.4117 C 5.09782 15.4371 5.8465 16.9385 6.98633 18.106 C 8.07404 19.22 9.55305 20.0641 11.2539 20.7232 L 11.9961 20.9947 L 12.0186 21.0015 C 14.0236 20.3018 15.7728 19.3811 17.0137 18.108 C 18.229 16.8611 19 15.2354 19 12.9996 L 19 5.99957 Z M 21 12.9996 C 21 15.7637 20.021 17.8889 18.4463 19.5045 C 16.8988 21.0921 14.8204 22.1442 12.6689 22.8941 L 12.6611 22.897 C 12.233 23.0421 11.7688 23.0369 11.3438 22.8843 L 11.3438 22.8853 C 11.3379 22.8833 11.3321 22.8805 11.3262 22.8785 C 11.3246 22.8779 11.3228 22.8781 11.3213 22.8775 L 11.3213 22.8765 C 9.17204 22.132 7.09956 21.0847 5.55566 19.5035 C 4.07782 17.9899 3.12517 16.0279 3.01172 13.5113 L 3 12.9996 L 3 5.99957 C 3.00012 5.4693 3.21097 4.96048 3.58594 4.58551 C 3.96099 4.21058 4.46967 3.99957 5 3.99957 L 5.32129 3.98785 C 6.95847 3.86733 9.05353 2.86215 10.582 1.52692 L 10.5908 1.52008 L 10.7422 1.40094 C 11.1082 1.14062 11.5477 0.999573 12 0.999573 C 12.4523 0.999573 12.8918 1.14062 13.2578 1.40094 L 13.4092 1.52008 L 13.418 1.52692 L 13.7324 1.79156 C 15.3383 3.08683 17.4277 3.99957 19 3.99957 C 19.5303 3.99957 20.039 4.21058 20.4141 4.58551 C 20.789 4.96048 20.9999 5.4693 21 5.99957 L 21 12.9996 Z" stroke-linecap="round" /></g><g transform="matrix(0.83 0 0 0.83 10 10)"  ><path style="stroke: none; stroke-width: 1; stroke-dasharray: none; stroke-linecap: butt; stroke-dashoffset: 0; stroke-linejoin: miter; stroke-miterlimit: 4; fill: rgb(224,224,224); fill-rule: nonzero; opacity: 1;"  transform=" translate(-12, -12)" d="M 14.3692 9.22462 C 14.7619 8.90427 15.3409 8.92686 15.707 9.29298 C 16.0732 9.65909 16.0958 10.2381 15.7754 10.6309 L 15.707 10.707 L 11.707 14.707 C 11.3409 15.0732 10.7619 15.0958 10.3692 14.7754 L 10.293 14.707 L 8.29298 12.707 L 8.22462 12.6309 C 7.90427 12.2381 7.92686 11.6591 8.29298 11.293 C 8.65909 10.9269 9.2381 10.9043 9.63087 11.2246 L 9.70704 11.293 L 11 12.5859 L 14.293 9.29298 L 14.3692 9.22462 Z" stroke-linecap="round" /></g></g></g></svg>