<svg xmlns="http://www.w3.org/2000/svg" width="20" height="20"  viewBox="0 0 20 20"><g transform="matrix(1 0 0 1 0 0)"  ><g style=""   ><g transform="matrix(0.83 0 0 0.83 10 10)"  ><path style="stroke: none; stroke-width: 1; stroke-dasharray: none; stroke-linecap: butt; stroke-dashoffset: 0; stroke-linejoin: miter; stroke-miterlimit: 4; fill: rgb(189,193,202); fill-rule: nonzero; opacity: 1;"  transform=" translate(-12, -12)" d="M 14.0002 22 L 14.0002 18 C 14.0002 17.9631 14.002 17.9263 14.0061 17.8896 C 14.1162 16.8979 13.8315 15.903 13.2141 15.1191 C 12.977 14.8182 12.9336 14.4081 13.1008 14.0635 C 13.268 13.7189 13.6172 13.5 14.0002 13.5 C 16.6263 13.4999 19.0002 11.7847 19.0002 9 C 19.0002 8.97882 19.0008 8.95766 19.0022 8.93652 C 19.0675 7.91581 18.782 6.91379 18.1867 6.08203 C 18.0173 5.84531 17.9597 5.54652 18.0285 5.26367 C 18.1853 4.61969 18.2379 3.95753 18.1916 3.30078 C 17.798 3.49084 17.2671 3.79931 16.5998 4.2998 C 16.4033 4.44719 16.1606 4.51698 15.9182 4.49707 L 15.8137 4.48242 C 13.4539 4.03552 11.0266 4.00733 8.6584 4.39844 L 8.18575 4.48242 C 7.94418 4.5281 7.69546 4.48339 7.48653 4.3584 L 7.39961 4.2998 C 6.72437 3.7934 6.18914 3.48337 5.79414 3.29395 C 5.74351 3.94752 5.80069 4.6068 5.96797 5.24805 C 6.03342 5.49948 5.99801 5.76512 5.87227 5.98926 L 5.8127 6.08301 C 5.21953 6.91076 4.93186 7.91839 4.99825 8.93457 C 4.99967 8.95628 5.0002 8.97824 5.0002 9 C 5.0002 11.7847 7.37402 13.5 10.0002 13.5 C 10.384 13.5001 10.7338 13.7198 10.9006 14.0654 C 11.0673 14.4113 11.0215 14.8226 10.7824 15.123 C 10.4732 15.5116 10.2456 15.9531 10.1125 16.4229 C 9.97847 16.896 9.93776 17.395 9.99336 17.8877 L 10.0002 18 L 10.0002 22 C 10.0002 22.5522 9.55239 22.9999 9.0002 23 C 8.44791 23 8.0002 22.5523 8.0002 22 L 8.0002 18.0439 C 7.9269 17.3186 7.98803 16.5817 8.1877 15.877 C 8.24095 15.6891 8.30414 15.5047 8.37618 15.3242 C 5.57562 14.7211 3.03347 12.5671 3.00215 9.06543 L 2.99043 8.78809 C 2.96345 7.5601 3.29118 6.35214 3.93086 5.30664 C 3.69474 4.12878 3.72792 2.91559 4.03243 1.74805 L 4.08809 1.58887 C 4.2474 1.23511 4.60204 1 5.0002 1 L 5.0002 2 C 5.0002 1.04284 5.00047 1.00176 5.00118 1 L 5.02657 1 C 5.03627 1.00023 5.04718 1.00043 5.05879 1.00098 C 5.08203 1.00207 5.10906 1.00396 5.13985 1.00684 C 5.2019 1.01265 5.27925 1.02377 5.37129 1.04102 C 5.55581 1.07561 5.79946 1.138 6.10078 1.25098 C 6.6346 1.45116 7.34902 1.80826 8.24434 2.44141 C 10.7281 2.02101 13.2714 2.02107 15.7551 2.44141 C 16.6505 1.80815 17.3648 1.4512 17.8986 1.25098 C 18.2 1.13795 18.4436 1.07563 18.6281 1.04102 C 18.7203 1.02374 18.7975 1.01266 18.8596 1.00684 C 18.8906 1.00392 18.9182 1.00207 18.9416 1.00098 C 18.9532 1.00043 18.9641 1.00023 18.9738 1 L 18.9982 1 C 18.9989 0.999999 19.0001 1 19.0002 1.76172 L 19.0002 1 C 19.4613 1.00009 19.8628 1.31567 19.9719 1.76367 C 20.2544 2.92415 20.2845 4.12937 20.0647 5.2998 C 20.7565 6.42753 21.0831 7.73667 20.9982 9.06348 C 20.9678 12.5691 18.421 14.7249 15.6174 15.3262 C 15.9575 16.1809 16.0924 17.1113 16.0002 18.042 L 16.0002 22 C 16.0002 22.5522 15.5524 22.9999 15.0002 23 C 14.4479 23 14.0002 22.5523 14.0002 22 Z" stroke-linecap="round" /></g><g transform="matrix(0.83 0 0 0.83 4.58 14.4)"  ><path style="stroke: none; stroke-width: 1; stroke-dasharray: none; stroke-linecap: butt; stroke-dashoffset: 0; stroke-linejoin: miter; stroke-miterlimit: 4; fill: rgb(189,193,202); fill-rule: nonzero; opacity: 1;"  transform=" translate(-5.5, -17.28)" d="M 2 15 C 2.8652 15 3.50263 15.4442 3.95703 15.8369 C 4.18347 16.0327 4.40872 16.2565 4.60059 16.4424 C 4.80333 16.6388 4.98899 16.8138 5.18359 16.9697 C 5.56205 17.2729 5.942 17.4776 6.41504 17.54 C 6.89595 17.6034 7.58469 17.5338 8.59473 17.0859 C 9.09958 16.8621 9.69018 17.0899 9.91406 17.5947 C 10.1379 18.0996 9.91012 18.6902 9.40527 18.9141 C 8.16037 19.4661 7.09616 19.6466 6.1543 19.5225 C 5.20472 19.3973 4.49127 18.977 3.93359 18.5303 C 3.66026 18.3113 3.41733 18.0798 3.20898 17.8779 C 2.98971 17.6655 2.82052 17.4985 2.64941 17.3506 C 2.30852 17.0559 2.13462 17 2 17 C 1.44772 17 1 16.5523 1 16 C 1 15.4477 1.44772 15 2 15 Z" stroke-linecap="round" /></g></g></g></svg>