<svg xmlns="http://www.w3.org/2000/svg" width="20" height="20"  viewBox="0 0 20 20"><g transform="matrix(1 0 0 1 0 0)"  ><g style=""   ><g transform="matrix(0.83 0 0 0.83 13.33 12.08)"  ><path style="stroke: none; stroke-width: 1; stroke-dasharray: none; stroke-linecap: butt; stroke-dashoffset: 0; stroke-linejoin: miter; stroke-miterlimit: 4; fill: rgb(189,193,202); fill-rule: nonzero; opacity: 1;"  transform=" translate(-16, -14.5)" d="M 21 14 C 21 12.6739 20.4728 11.4025 19.5352 10.4648 C 18.5975 9.52716 17.3261 9 16 9 C 14.6739 9 13.4025 9.52716 12.4648 10.4648 C 11.5272 11.4025 11 12.6739 11 14 L 11 20 L 13 20 L 13 14 C 13 13.2043 13.3163 12.4415 13.8789 11.8789 C 14.4415 11.3163 15.2043 11 16 11 C 16.7957 11 17.5585 11.3163 18.1211 11.8789 C 18.6837 12.4415 19 13.2043 19 14 L 19 20 L 21 20 L 21 14 Z M 23 21 C 23 21.5523 22.5523 22 22 22 L 18 22 C 17.4477 22 17 21.5523 17 21 L 17 14 C 17 13.7348 16.8946 13.4805 16.707 13.293 C 16.5195 13.1054 16.2652 13 16 13 C 15.7348 13 15.4805 13.1054 15.293 13.293 C 15.1054 13.4805 15 13.7348 15 14 L 15 21 C 15 21.5523 14.5523 22 14 22 L 10 22 C 9.44772 22 9 21.5523 9 21 L 9 14 C 9 12.1435 9.73705 10.3626 11.0498 9.0498 C 12.3626 7.73705 14.1435 7 16 7 C 17.8565 7 19.6374 7.73705 20.9502 9.0498 C 22.263 10.3626 23 12.1435 23 14 L 23 21 Z" stroke-linecap="round" /></g><g transform="matrix(0.83 0 0 0.83 3.33 12.5)"  ><path style="stroke: none; stroke-width: 1; stroke-dasharray: none; stroke-linecap: butt; stroke-dashoffset: 0; stroke-linejoin: miter; stroke-miterlimit: 4; fill: rgb(189,193,202); fill-rule: nonzero; opacity: 1;"  transform=" translate(-4, -15)" d="M 6 8 L 6.10254 8.00488 C 6.60667 8.05621 7 8.48232 7 9 L 7 21 C 7 21.5523 6.55228 22 6 22 L 2 22 C 1.44772 22 1 21.5523 1 21 L 1 9 L 1.00488 8.89746 C 1.05621 8.39333 1.48232 8 2 8 L 6 8 Z M 3 20 L 5 20 L 5 10 L 3 10 L 3 20 Z" stroke-linecap="round" /></g><g transform="matrix(0.83 0 0 0.83 3.33 3.33)"  ><path style="stroke: none; stroke-width: 1; stroke-dasharray: none; stroke-linecap: butt; stroke-dashoffset: 0; stroke-linejoin: miter; stroke-miterlimit: 4; fill: rgb(189,193,202); fill-rule: nonzero; opacity: 1;"  transform=" translate(-4, -4)" d="M 5 4 C 5 3.44772 4.55228 3 4 3 C 3.44772 3 3 3.44772 3 4 C 3 4.55228 3.44772 5 4 5 C 4.55228 5 5 4.55228 5 4 Z M 7 4 C 7 5.65685 5.65685 7 4 7 C 2.34315 7 1 5.65685 1 4 C 1 2.34315 2.34315 1 4 1 C 5.65685 1 7 2.34315 7 4 Z" stroke-linecap="round" /></g></g></g></svg>